<?xml version="1.0" encoding="UTF-8" standalone="no"?>
<svg
   xmlns:dc="http://purl.org/dc/elements/1.1/"
   xmlns:cc="http://creativecommons.org/ns#"
   xmlns:rdf="http://www.w3.org/1999/02/22-rdf-syntax-ns#"
   xmlns:svg="http://www.w3.org/2000/svg"
   xmlns="http://www.w3.org/2000/svg"
   viewBox="0 0 682.66669 682.66669"
   height="682.66669"
   width="682.66669"
   xml:space="preserve"
   id="svg2"
   version="1.1"><metadata
     id="metadata8"><rdf:RDF><cc:Work
         rdf:about=""><dc:format>image/svg+xml</dc:format><dc:type
           rdf:resource="http://purl.org/dc/dcmitype/StillImage" /></cc:Work></rdf:RDF></metadata><defs
     id="defs6"><clipPath
       id="clipPath18"
       clipPathUnits="userSpaceOnUse"><path
         id="path16"
         d="M 0,512 H 512 V 0 H 0 Z" /></clipPath></defs><g
     transform="matrix(1.3333333,0,0,-1.3333333,0,682.66667)"
     id="g10"><g
       id="g12"><g
         clip-path="url(#clipPath18)"
         id="g14"><g
           transform="translate(456,256)"
           id="g20"><path
             id="path22"
             style="fill:#1da1f2;fill-opacity:1;fill-rule:nonzero;stroke:none"
             d="m 0,0 c 0,-110.457 -89.543,-200 -200,-200 -110.457,0 -200,89.543 -200,200 0,110.457 89.543,200 200,200 C -89.543,200 0,110.457 0,0" /></g><g
           transform="translate(212.4059,160.5066)"
           id="g24"><path
             id="path26"
             style="fill:#ffffff;fill-opacity:1;fill-rule:nonzero;stroke:none"
             d="m 0,0 c 88.683,0 137.18,73.471 137.18,137.179 0,2.088 -0.043,4.166 -0.138,6.234 9.413,6.805 17.596,15.296 24.052,24.963 -8.639,-3.837 -17.936,-6.424 -27.688,-7.59 9.954,5.968 17.596,15.413 21.201,26.671 -9.318,-5.523 -19.632,-9.54 -30.614,-11.703 -8.799,9.371 -21.328,15.233 -35.194,15.233 -26.628,0 -48.221,-21.593 -48.221,-48.21 0,-3.785 0.424,-7.464 1.251,-10.994 -40.069,2.015 -75.602,21.201 -99.379,50.374 -4.144,-7.124 -6.529,-15.403 -6.529,-24.233 0,-16.727 8.512,-31.494 21.455,-40.132 -7.908,0.243 -15.339,2.416 -21.837,6.031 -0.011,-0.201 -0.011,-0.403 -0.011,-0.615 0,-23.353 16.622,-42.847 38.681,-47.267 -4.049,-1.102 -8.31,-1.696 -12.71,-1.696 -3.106,0 -6.127,0.307 -9.063,0.869 6.138,-19.155 23.936,-33.094 45.041,-33.487 -16.505,-12.932 -37.292,-20.638 -59.881,-20.638 -3.891,0 -7.728,0.222 -11.502,0.667 C -52.567,7.982 -27.232,0 0,0" /></g></g></g></g></svg>