<?xml version="1.0" encoding="UTF-8" standalone="no"?>
<svg
   xmlns:dc="http://purl.org/dc/elements/1.1/"
   xmlns:cc="http://creativecommons.org/ns#"
   xmlns:rdf="http://www.w3.org/1999/02/22-rdf-syntax-ns#"
   xmlns:svg="http://www.w3.org/2000/svg"
   xmlns="http://www.w3.org/2000/svg"
   id="svg4"
   version="1.1"
   viewBox="0 0 96 96">
  <metadata
     id="metadata10">
    <rdf:RDF>
      <cc:Work
         rdf:about="">
        <dc:format>image/svg+xml</dc:format>
        <dc:type
           rdf:resource="http://purl.org/dc/dcmitype/StillImage" />
        <dc:title></dc:title>
      </cc:Work>
    </rdf:RDF>
  </metadata>
  <defs
     id="defs8" />
  <path
     id="path2"
     d="M94.98,28.84c0,0-0.94-6.6-3.81-9.5c-3.64-3.81-7.72-3.83-9.59-4.05c-13.4-0.97-33.52-0.85-33.52-0.85s-20.12-0.12-33.52,0.85c-1.87,0.22-5.95,0.24-9.59,4.05c-2.87,2.9-3.81,9.5-3.81,9.5S0.18,36.58,0,44.33v7.26c0.18,7.75,1.14,15.49,1.14,15.49s0.93,6.6,3.81,9.5c3.64,3.81,8.43,3.69,10.56,4.09c7.53,0.72,31.7,0.89,32.54,0.9c0.01,0,20.14,0.03,33.54-0.94c1.87-0.22,5.95-0.24,9.59-4.05c2.87-2.9,3.81-9.5,3.81-9.5s0.96-7.75,1.02-15.49v-7.26C95.94,36.58,94.98,28.84,94.98,28.84z M38.28,61.41v-27l25.74,13.5L38.28,61.41z"
     fill="#282928" />
  <path
     id="path4487"
     d="m 38.4,47.80339 c 0,-7.177966 0.145364,-12.989831 0.323032,-12.915254 1.671625,0.701666 24.4796,12.806425 24.484305,12.994427 0.0062,0.246734 -24.087128,12.971674 -24.560467,12.971674 -0.135779,0 -0.24687,-5.872881 -0.24687,-13.050847 z"
     style="fill:#f7f7f7;fill-opacity:1;stroke:#ffffff;stroke-width:1.22033894;stroke-miterlimit:4;stroke-dasharray:none;stroke-dashoffset:0;stroke-opacity:1" />
</svg>
